<svg width="24" height="25" viewBox="0 0 24 25" fill="none" xmlns="http://www.w3.org/2000/svg">
<ellipse cx="12" cy="9.78606" rx="4" ry="4.03215" fill="#33363F"/>
<ellipse cx="17" cy="9.78632" rx="3" ry="3.02412" fill="#33363F"/>
<ellipse cx="7" cy="9.78632" rx="3" ry="3.02412" fill="#33363F"/>
<path fill-rule="evenodd" clip-rule="evenodd" d="M17.5683 18.8586H19.8958C20.4871 18.8586 20.9408 18.3493 20.7988 17.7753C20.4323 16.2941 19.4529 13.8184 16.9999 13.8184C16.1138 13.8184 15.42 14.1414 14.8779 14.6239C16.3857 15.61 17.1653 17.3366 17.5683 18.8586Z" fill="#33363F"/>
<path fill-rule="evenodd" clip-rule="evenodd" d="M9.12186 14.6239C8.57978 14.1414 7.88597 13.8184 6.99989 13.8184C4.54688 13.8184 3.56748 16.2941 3.20103 17.7753C3.05902 18.3493 3.51268 18.8586 4.10399 18.8586H6.43144C6.83453 17.3366 7.61411 15.61 9.12186 14.6239Z" fill="#33363F"/>
<path d="M12 14.8262C15.7142 14.8262 16.6694 18.1637 16.915 19.8802C16.9932 20.4269 16.5523 20.8744 16 20.8744H8C7.44772 20.8744 7.0068 20.4269 7.08503 19.8802C7.33064 18.1637 8.28578 14.8262 12 14.8262Z" fill="#33363F"/>
</svg>
