<svg width="24" height="25" viewBox="0 0 24 25" fill="none" xmlns="http://www.w3.org/2000/svg">
<path fill-rule="evenodd" clip-rule="evenodd" d="M12.4007 20.4106C13.887 19.633 19 16.5909 19 11.5372C19 7.64016 15.866 4.48096 12 4.48096C8.13401 4.48096 5 7.64016 5 11.5372C5 16.5909 10.113 19.633 11.5993 20.4106C11.8536 20.5436 12.1464 20.5436 12.4007 20.4106ZM12 14.5613C13.6569 14.5613 15 13.2074 15 11.5372C15 9.86705 13.6569 8.51311 12 8.51311C10.3431 8.51311 9 9.86705 9 11.5372C9 13.2074 10.3431 14.5613 12 14.5613Z" fill="#222222"/>
</svg>
